<?xml version="1.0" encoding="UTF-8" standalone="no"?>
<!-- Created with Inkscape (http://www.inkscape.org/) -->

<svg
   width="297mm"
   height="210mm"
   viewBox="0 0 1122.5197 793.70081"
   version="1.1"
   id="svg5"
   inkscape:version="1.2.2 (b0a84865, 2022-12-01)"
   sodipodi:docname="grafik 1.3.svg"
   xml:space="preserve"
   xmlns:inkscape="http://www.inkscape.org/namespaces/inkscape"
   xmlns:sodipodi="http://sodipodi.sourceforge.net/DTD/sodipodi-0.dtd"
   xmlns="http://www.w3.org/2000/svg"
   xmlns:svg="http://www.w3.org/2000/svg"><sodipodi:namedview
     id="namedview7"
     pagecolor="#ffffff"
     bordercolor="#000000"
     borderopacity="0.25"
     inkscape:showpageshadow="2"
     inkscape:pageopacity="0.0"
     inkscape:pagecheckerboard="0"
     inkscape:deskcolor="#d1d1d1"
     inkscape:document-units="mm"
     showgrid="false"
     inkscape:zoom="0.70890321"
     inkscape:cx="571.30507"
     inkscape:cy="398.50292"
     inkscape:window-width="1470"
     inkscape:window-height="819"
     inkscape:window-x="0"
     inkscape:window-y="81"
     inkscape:window-maximized="0"
     inkscape:current-layer="layer5"><inkscape:grid
       type="xygrid"
       id="grid950" /></sodipodi:namedview><defs
     id="defs2"><rect
       x="125.47582"
       y="268.42297"
       width="149.30035"
       height="174.71317"
       id="rect9582" /></defs><g
     inkscape:groupmode="layer"
     id="layer9"
     inkscape:label="elements"
     style="display:inline"
     sodipodi:insensitive="true"><g
       id="g1163"
       transform="translate(-40,138)"><rect
         style="fill:#8b8b8b;fill-opacity:1;stroke-width:0.185329"
         id="rect5434-9-9-7-0-0-8-7-5-6"
         width="42.252228"
         height="3.023622"
         x="-301.77753"
         y="509.13727"
         transform="rotate(-90)" /><rect
         style="fill:#8b8b8b;fill-opacity:1;stroke-width:0.651564"
         id="rect5434-9-9-7-0-0-8-2-0-0-8-7"
         width="3.023622"
         height="522.25806"
         x="-282.97876"
         y="248.50574"
         transform="rotate(-90)" /><rect
         style="fill:#8b8b8b;fill-opacity:1;stroke-width:0.132136"
         id="rect5434-9-9-7-0-0-8-7-1-0-1-6-9"
         width="21.478359"
         height="3.023622"
         x="-301.44556"
         y="248.06322"
         transform="rotate(-90)" /><rect
         style="fill:#8b8b8b;fill-opacity:1;stroke-width:0.133086"
         id="rect5434-9-9-7-0-0-8-7-1-0-1-4-2-4"
         width="21.788755"
         height="3.023622"
         x="-301.75586"
         y="768.06262"
         transform="rotate(-90)" /></g><g
       id="g941"
       transform="translate(-20,138)"><rect
         style="display:inline;fill:#8b8b8b;fill-opacity:1;stroke-width:0.130931"
         id="rect5434-9-9-7-0-0-8-7-5-6-0"
         width="21.088469"
         height="3.023622"
         x="-381.0369"
         y="229.17044"
         transform="rotate(-90)" /><rect
         style="display:inline;fill:#8b8b8b;fill-opacity:1;stroke-width:0.134188"
         id="rect5434-9-9-7-0-0-8-7-5-6-0-9"
         width="22.150709"
         height="3.023622"
         x="-401.60153"
         y="168.2327"
         transform="rotate(-90)" /><rect
         style="display:inline;fill:#8b8b8b;fill-opacity:1;stroke-width:0.130931"
         id="rect5434-9-9-7-0-0-8-7-5-6-0-9-4"
         width="21.088469"
         height="3.023622"
         x="-401.28949"
         y="288.70883"
         transform="rotate(-90)" /><rect
         style="display:inline;fill:#8b8b8b;fill-opacity:1;stroke-width:0.316806"
         id="rect5434-9-9-7-0-0-8-2-0-0-8-7-3"
         width="3.023622"
         height="123.46857"
         x="-382.49484"
         y="168.24353"
         transform="rotate(-90)" /></g><g
       id="g931"
       transform="translate(-40,138)"><rect
         style="display:inline;fill:#8b8b8b;fill-opacity:1;stroke-width:0.130931"
         id="rect5434-9-9-7-0-0-8-7-5-6-0-3"
         width="21.088469"
         height="3.023622"
         x="-380.57959"
         y="509.71365"
         transform="rotate(-90)" /><rect
         style="display:inline;fill:#8b8b8b;fill-opacity:1;stroke-width:0.134188"
         id="rect5434-9-9-7-0-0-8-7-5-6-0-9-7"
         width="22.150709"
         height="3.023622"
         x="-401.14423"
         y="448.60486"
         transform="rotate(-90)" /><rect
         style="display:inline;fill:#8b8b8b;fill-opacity:1;stroke-width:0.130931"
         id="rect5434-9-9-7-0-0-8-7-5-6-0-9-4-8"
         width="21.088469"
         height="3.023622"
         x="-400.83218"
         y="567.43634"
         transform="rotate(-90)" /><rect
         style="display:inline;fill:#8b8b8b;fill-opacity:1;stroke-width:0.314047"
         id="rect5434-9-9-7-0-0-8-2-0-0-8-7-3-8"
         width="3.023622"
         height="121.32742"
         x="-382.03754"
         y="448.78677"
         transform="rotate(-90)" /></g><g
       id="g921"
       transform="translate(-60,138)"><rect
         style="display:inline;fill:#8b8b8b;fill-opacity:1;stroke-width:0.130931"
         id="rect5434-9-9-7-0-0-8-7-5-6-0-3-5"
         width="21.088469"
         height="3.023622"
         x="-380.48773"
         y="790.72491"
         transform="rotate(-90)" /><rect
         style="display:inline;fill:#8b8b8b;fill-opacity:1;stroke-width:0.134188"
         id="rect5434-9-9-7-0-0-8-7-5-6-0-9-7-3"
         width="22.150709"
         height="3.023622"
         x="-401.05237"
         y="729.05457"
         transform="rotate(-90)" /><rect
         style="display:inline;fill:#8b8b8b;fill-opacity:1;stroke-width:0.130931"
         id="rect5434-9-9-7-0-0-8-7-5-6-0-9-4-8-5"
         width="21.088469"
         height="3.023622"
         x="-400.74033"
         y="848.98389"
         transform="rotate(-90)" /><rect
         style="display:inline;fill:#8b8b8b;fill-opacity:1;stroke-width:0.31543"
         id="rect5434-9-9-7-0-0-8-2-0-0-8-7-3-8-4"
         width="3.023622"
         height="122.39799"
         x="-381.94568"
         y="729.2627"
         transform="rotate(-90)" /></g><g
       id="g20680"
       transform="translate(-100,144)"><path
         style="fill:#f36c89;fill-opacity:1;stroke-width:0.154301"
         d="m 996.6174,208.11255 c 1.8738,-2.6196 -0.7267,-4.1111 -0.7267,-4.1111 l -9.9048,-7.3999 c 0,0 -0.5711,-0.4919 -1.4277,-0.5339 -0.8566,-0.042 -1.9287,0.2259 -2.5173,1.5187 -0.5886,1.2928 0.047,2.2335 0.047,2.2335 0,0 0.3416,0.5834 0.8566,0.9828 0.5151,0.3994 1.9077,1.4294 1.9077,1.4294 l 1.3506,1.0248 0.5518,0.4204 v 1.7553 2.6486 l 0.016,0.9302 -3.6314,2.738 c 0,0 -1.2291,0.8084 -1.3385,2.1531 -0.1095,1.3447 0.9435,2.3969 1.7595,2.63 0.816,0.2332 1.6612,0.058 1.9963,-0.1238 0.3352,-0.1822 1.6102,-1.1512 1.6102,-1.1512 l 2.8779,-2.1857 2.3606,-1.7705 3.417,-2.5792 z"
         id="path2400" /><rect
         style="fill:#f36c89;fill-opacity:1;stroke-width:0.190047"
         id="rect5434-9"
         width="25.193975"
         height="5.3324471"
         x="965.29163"
         y="203.66418" /><path
         style="fill:#f36c89;fill-opacity:1;stroke-width:0.154301"
         d="m 995.8842,443.01179 c 1.8738,-2.6196 -0.7267,-4.1111 -0.7267,-4.1111 l -9.9048,-7.3999 c 0,0 -0.5711,-0.4919 -1.4277,-0.5339 -0.8566,-0.042 -1.9287,0.2259 -2.5173,1.5187 -0.5886,1.2928 0.047,2.2335 0.047,2.2335 0,0 0.3416,0.5834 0.8566,0.9828 0.5151,0.3994 1.9077,1.4294 1.9077,1.4294 l 1.3506,1.0248 0.5518,0.4204 v 1.7553 2.6486 l 0.016,0.9302 -3.6314,2.738 c 0,0 -1.2291,0.8084 -1.3385,2.1531 -0.1095,1.3447 0.9435,2.3969 1.7595,2.63 0.816,0.2332 1.6612,0.058 1.9963,-0.1238 0.3352,-0.1822 1.6102,-1.1512 1.6102,-1.1512 l 2.8779,-2.1857 2.3606,-1.7705 3.417,-2.5792 z"
         id="path2400-0" /><rect
         style="fill:#f36c89;fill-opacity:1;stroke-width:0.190047"
         id="rect5434-9-09"
         width="25.193975"
         height="5.3324471"
         x="964.55823"
         y="438.56342" /><rect
         style="fill:#f36c89;fill-opacity:1;stroke-width:0.586766"
         id="rect5434-9-0"
         width="240.16304"
         height="5.3324471"
         x="-443.98184"
         y="960.54797"
         transform="rotate(-90)" /></g><path
       style="fill:#000000;fill-opacity:1;stroke-width:0.166918"
       d="m 895.76207,642.5405 c 2.19278,-2.61962 -0.8504,-4.11108 -0.8504,-4.11108 l -11.59089,-7.39993 c 0,0 -0.66832,-0.49189 -1.67073,-0.53393 -1.00242,-0.0421 -2.25703,0.22597 -2.94582,1.51877 -0.6888,1.2928 0.055,2.2335 0.055,2.2335 0,0 0.39975,0.58334 1.00242,0.98273 0.60278,0.39941 2.23244,1.42944 2.23244,1.42944 l 1.58051,1.02479 0.64574,0.42041 v 1.75527 2.64866 l 0.0187,0.93019 -4.24957,2.738 c 0,0 -1.43833,0.8084 -1.56635,2.15307 -0.12814,1.34468 1.10411,2.39686 2.05902,2.63002 0.9549,0.23315 1.94398,0.0583 2.33613,-0.12386 0.39226,-0.18215 1.8843,-1.15115 1.8843,-1.15115 l 3.3678,-2.18574 2.76244,-1.77045 3.99868,-2.57918 z"
       id="path2400-52" /><rect
       style="fill:#000000;fill-opacity:1;stroke-width:1.06157"
       id="rect5434-9-27"
       width="786.10461"
       height="5.3324471"
       x="99.914902"
       y="638.0921" /><path
       style="display:inline;fill:#000000;fill-opacity:1;stroke-width:0.157463"
       d="m 61.853401,240.33245 c -2.61962,-1.95147 -4.11108,0.75669 -4.11108,0.75669 l -7.39993,10.31492 c 0,0 -0.49189,0.59475 -0.53393,1.48683 -0.0421,0.89208 0.22597,2.00853 1.51877,2.62149 1.2928,0.61296 2.2335,-0.0493 2.2335,-0.0493 0,0 0.58334,-0.35573 0.98273,-0.89207 0.39941,-0.53635 1.42944,-1.98666 1.42944,-1.98666 l 1.02479,-1.40653 0.42041,-0.57464 1.75527,-0.005 h 2.64866 l 0.93019,-0.0164 2.738,3.78175 c 0,0 0.8084,1.28 2.15307,1.39398 1.34468,0.11398 2.39686,-0.98264 2.63002,-1.83243 0.23315,-0.8498 0.0583,-1.72994 -0.12386,-2.07897 -0.18215,-0.34902 -1.15115,-1.67682 -1.15115,-1.67682 l -2.18574,-2.99705 -1.77045,-2.45834 -2.57918,-3.55852 z"
       id="path2400-5" /><rect
       style="display:inline;fill:#000000;fill-opacity:1;stroke-width:0.712115"
       id="rect5434-9-2"
       width="353.73462"
       height="5.3324471"
       x="-600.04974"
       y="57.404999"
       transform="rotate(-90)" /><g
       id="g1315"
       transform="translate(-40,138)"><path
         style="display:inline;fill:#33c695;fill-opacity:1;stroke-width:0.154301"
         d="m 148.91706,200.86224 c 2.61962,1.87388 4.11108,-0.72661 4.11108,-0.72661 l 7.39993,-9.90482 c 0,0 0.49189,-0.57111 0.53393,-1.42772 0.0421,-0.85661 -0.22597,-1.92868 -1.51877,-2.51727 -1.2928,-0.58859 -2.2335,0.0473 -2.2335,0.0473 0,0 -0.58334,0.34159 -0.98273,0.85661 -0.39941,0.51502 -1.42944,1.90767 -1.42944,1.90767 l -1.02479,1.35061 -0.42041,0.5518 -1.75527,0.005 h -2.64866 l -0.93019,0.0158 -2.738,-3.6314 c 0,0 -0.8084,-1.22911 -2.15307,-1.33856 -1.34468,-0.10945 -2.39686,0.94357 -2.63002,1.75958 -0.23315,0.81601 -0.0583,1.66116 0.12386,1.99631 0.18215,0.33515 1.15115,1.61016 1.15115,1.61016 l 2.18574,2.87789 1.77045,2.3606 2.57918,3.41705 z"
         id="path2400-5-3-5" /><rect
         style="display:inline;fill:#33c695;fill-opacity:1;stroke-width:0.186296"
         id="rect5434-9-2-0-9"
         width="24.209229"
         height="5.3324471"
         x="169.92596"
         y="-153.36545"
         transform="rotate(90)" /><path
         style="display:inline;fill:#33c695;fill-opacity:1;stroke-width:0.154301"
         d="m 867.9757,200.16795 c 2.6197,1.87388 4.1111,-0.72661 4.1111,-0.72661 l 7.3999,-9.90482 c 0,0 0.4919,-0.57111 0.534,-1.42772 0.042,-0.85661 -0.226,-1.92868 -1.5188,-2.51727 -1.2928,-0.58859 -2.2335,0.0473 -2.2335,0.0473 0,0 -0.5833,0.34159 -0.9827,0.85661 -0.3994,0.51502 -1.4295,1.90767 -1.4295,1.90767 l -1.0248,1.35061 -0.4204,0.5518 -1.7552,0.005 h -2.6487 l -0.9302,0.0158 -2.738,-3.6314 c 0,0 -0.8084,-1.22911 -2.1531,-1.33856 -1.3446,-0.10945 -2.39682,0.94357 -2.62998,1.75958 -0.23315,0.81601 -0.0583,1.66116 0.12386,1.99631 0.18215,0.33515 1.15112,1.61016 1.15112,1.61016 l 2.1858,2.87789 1.7704,2.3606 2.5792,3.41705 z"
         id="path2400-5-3-5-3" /><rect
         style="display:inline;fill:#33c695;fill-opacity:1;stroke-width:0.199613"
         id="rect5434-9-2-0-9-3"
         width="27.794075"
         height="5.3324471"
         x="165.64682"
         y="-872.42407"
         transform="rotate(90)" /><rect
         style="display:inline;fill:#33c695;fill-opacity:1;stroke-width:1.01888"
         id="rect5434-9-2-0-0"
         width="724.12769"
         height="5.3324471"
         x="147.94069"
         y="165.10522" /></g></g><g
     inkscape:label="shapes"
     inkscape:groupmode="layer"
     id="layer1"
     style="display:inline"
     sodipodi:insensitive="true"><rect
       style="display:inline;fill:#f2f2f2;fill-opacity:1;stroke-width:0.288708"
       id="rect1110-6-3"
       width="99.249893"
       height="61.002991"
       x="100.11957"
       y="538.0509"
       rx="25.310349"
       ry="30.236221" /><rect
       style="display:inline;fill:#f2f2f2;fill-opacity:1;stroke-width:0.287875"
       id="rect1110-6-3-1"
       width="100.6296"
       height="59.819935"
       x="159.26022"
       y="438.12677"
       rx="25.662195"
       ry="29.649837" /><rect
       style="display:inline;fill:#f2f2f2;fill-opacity:1;stroke-width:0.285796"
       id="rect1110-6-3-38"
       width="99.249893"
       height="59.778851"
       x="420.66577"
       y="438.16782"
       rx="25.310349"
       ry="29.629475" /><rect
       style="display:inline;fill:#f2f2f2;fill-opacity:1;stroke-width:0.28817"
       id="rect1110-6-3-4"
       width="100.6296"
       height="59.94289"
       x="679.25964"
       y="437.81671"
       rx="25.662195"
       ry="29.710781" /><rect
       style="display:inline;fill:#f2f2f2;fill-opacity:1;stroke-width:0.288708"
       id="rect1110-6-3-8"
       width="99.249893"
       height="61.002991"
       x="420.1626"
       y="337.91803"
       rx="25.310347"
       ry="30.236221" /><rect
       style="display:inline;fill:#f2f2f2;fill-opacity:1;stroke-width:0.290708"
       id="rect1110-6-3-2"
       width="100.6296"
       height="61.002991"
       x="219.90585"
       y="538.05676"
       rx="25.662195"
       ry="30.236221" /><rect
       style="display:inline;fill:#f2f2f2;fill-opacity:1;stroke-width:0.288147"
       id="rect1110-6-3-7"
       width="100.61288"
       height="59.94289"
       x="359.81024"
       y="537.44305"
       rx="25.65793"
       ry="29.710781" /><rect
       style="display:inline;fill:#f2f2f2;fill-opacity:1;stroke-width:0.286165"
       id="rect1110-6-3-0"
       width="99.233177"
       height="59.94289"
       x="479.33154"
       y="538.099"
       rx="25.306084"
       ry="29.710781" /><rect
       style="display:inline;fill:#f2f2f2;fill-opacity:1;stroke-width:0.284285"
       id="rect1110-6-3-3"
       width="97.933586"
       height="59.94289"
       x="621.59961"
       y="538.16467"
       rx="24.427738"
       ry="29.710781" /><rect
       style="display:inline;fill:#f2f2f2;fill-opacity:1;stroke-width:0.28851"
       id="rect1110-6-3-9"
       width="100.61288"
       height="60.094334"
       x="740.18927"
       y="537.99823"
       rx="25.657932"
       ry="29.785845" /></g><g
     inkscape:groupmode="layer"
     id="layer11"
     inkscape:label="text 15"
     sodipodi:insensitive="true"><text
       xml:space="preserve"
       style="font-style:normal;font-variant:normal;font-weight:bold;font-stretch:normal;font-size:20px;font-family:'Source Sans Pro';-inkscape-font-specification:'Source Sans Pro, Bold';font-variant-ligatures:normal;font-variant-caps:normal;font-variant-numeric:normal;font-variant-east-asian:normal;fill:#8d0121;fill-opacity:1"
       x="877.72522"
       y="472.82364"
       id="text3484-6-7-7-9"
       inkscape:label="text3484-6-7-7"><tspan
         sodipodi:role="line"
         x="877.72522"
         y="472.82364"
         id="tspan3486-2-3-9-5">Wertschöpfung</tspan></text><text
       xml:space="preserve"
       style="font-style:normal;font-variant:normal;font-weight:bold;font-stretch:normal;font-size:20px;font-family:'Source Sans Pro';-inkscape-font-specification:'Source Sans Pro, Bold';font-variant-ligatures:normal;font-variant-caps:normal;font-variant-numeric:normal;font-variant-east-asian:normal;fill:#1e5b47;fill-opacity:1"
       x="339.54523"
       y="287.08548"
       id="text3484-6-7-7-9-3-7-5"
       inkscape:label="text3484-6-7-7"><tspan
         sodipodi:role="line"
         x="339.54523"
         y="287.08548"
         id="tspan14633">Arbeitsteilung &amp; Koordination</tspan></text><text
       xml:space="preserve"
       style="font-size:20px;line-height:0;font-family:'Source Sans Pro';-inkscape-font-specification:'Source Sans Pro, Normal';text-align:center;text-anchor:middle;fill:#865203;stroke:#000000;stroke-width:1.02047"
       x="136.25369"
       y="328.53696"
       id="text16787"><tspan
         sodipodi:role="line"
         id="tspan16785"
         x="136.25369"
         y="328.53696" /></text></g><g
     inkscape:groupmode="layer"
     id="layer8"
     inkscape:label="text 19"
     style="display:inline"
     sodipodi:insensitive="true"><text
       xml:space="preserve"
       style="font-style:normal;font-variant:normal;font-weight:bold;font-stretch:normal;font-size:25.3333px;font-family:'Source Sans Pro';-inkscape-font-specification:'Source Sans Pro, Bold';font-variant-ligatures:normal;font-variant-caps:normal;font-variant-numeric:normal;font-variant-east-asian:normal;fill:#000000;fill-opacity:1"
       x="916.25916"
       y="647.763"
       id="text3484-6-7-7-9-3"
       inkscape:label="text3484-6-7-7"><tspan
         sodipodi:role="line"
         x="916.25916"
         y="647.763"
         id="tspan3486-2-3-9-5-0">Ablauf / Prozess</tspan></text><text
       xml:space="preserve"
       style="font-style:normal;font-variant:normal;font-weight:bold;font-stretch:normal;font-size:25.3333px;font-family:'Source Sans Pro';-inkscape-font-specification:'Source Sans Pro, Bold';font-variant-ligatures:normal;font-variant-caps:normal;font-variant-numeric:normal;font-variant-east-asian:normal;fill:#000000;fill-opacity:1"
       x="22.247299"
       y="187.09845"
       id="text3484-6-7-7-9-3-7"
       inkscape:label="text3484-6-7-7"><tspan
         sodipodi:role="line"
         x="22.247299"
         y="187.09845"
         id="tspan3486-2-3-9-5-0-2">Aufbau / </tspan><tspan
         sodipodi:role="line"
         x="22.247299"
         y="218.76508"
         id="tspan16791">Struktur</tspan></text></g><g
     inkscape:groupmode="layer"
     id="layer5"
     inkscape:label="headline 23"
     sodipodi:insensitive="true"><text
       xml:space="preserve"
       style="font-style:normal;font-variant:normal;font-weight:bold;font-stretch:normal;font-size:30.6667px;font-family:'Source Sans Pro';-inkscape-font-specification:'Source Sans Pro, Bold';font-variant-ligatures:normal;font-variant-caps:normal;font-variant-numeric:normal;font-variant-east-asian:normal;fill:#000000"
       x="22.279299"
       y="100.45168"
       id="text790"
       inkscape:label="headline"><tspan
         id="tspan788"
         x="22.279299"
         y="100.45168"
         sodipodi:role="line">Ablauforganisation</tspan></text></g></svg>
