<?xml version="1.0" encoding="UTF-8" standalone="no"?>
<!-- Created with Inkscape (http://www.inkscape.org/) -->

<svg
   width="297mm"
   height="210mm"
   viewBox="0 0 1122.5197 793.70081"
   version="1.1"
   id="svg5"
   inkscape:version="1.2.2 (b0a84865, 2022-12-01)"
   sodipodi:docname="grafik 1.2 Kopie.svg"
   xml:space="preserve"
   xmlns:inkscape="http://www.inkscape.org/namespaces/inkscape"
   xmlns:sodipodi="http://sodipodi.sourceforge.net/DTD/sodipodi-0.dtd"
   xmlns="http://www.w3.org/2000/svg"
   xmlns:svg="http://www.w3.org/2000/svg"><sodipodi:namedview
     id="namedview7"
     pagecolor="#ffffff"
     bordercolor="#000000"
     borderopacity="0.25"
     inkscape:showpageshadow="2"
     inkscape:pageopacity="0.0"
     inkscape:pagecheckerboard="0"
     inkscape:deskcolor="#d1d1d1"
     inkscape:document-units="mm"
     showgrid="false"
     inkscape:zoom="0.59491285"
     inkscape:cx="498.39233"
     inkscape:cy="350.4715"
     inkscape:window-width="1470"
     inkscape:window-height="819"
     inkscape:window-x="0"
     inkscape:window-y="37"
     inkscape:window-maximized="0"
     inkscape:current-layer="layer9"><inkscape:grid
       type="xygrid"
       id="grid950" /></sodipodi:namedview><defs
     id="defs2"><rect
       x="125.47582"
       y="268.42297"
       width="149.30035"
       height="174.71317"
       id="rect9582" /></defs><g
     inkscape:groupmode="layer"
     id="layer9"
     inkscape:label="elements"
     style="display:inline"
     sodipodi:insensitive="true"><g
       id="g6564"><rect
         style="fill:#8b8b8b;fill-opacity:1;stroke-width:0.138162"
         id="rect5434-9-9-7-0-0-8-7-5-6"
         width="23.482399"
         height="3.023622"
         x="-243.00769"
         y="418.29233"
         transform="rotate(-90)" /><rect
         style="fill:#8b8b8b;fill-opacity:1;stroke-width:0.55651"
         id="rect5434-9-9-7-0-0-8-2-0-0-8-7"
         width="3.023622"
         height="380.99307"
         x="-242.97876"
         y="229.30762"
         transform="rotate(-90)" /><rect
         style="fill:#8b8b8b;fill-opacity:1;stroke-width:0.132136"
         id="rect5434-9-9-7-0-0-8-7-1-0-1-6-9"
         width="21.478359"
         height="3.023622"
         x="-261.44556"
         y="228.2327"
         transform="rotate(-90)" /><rect
         style="display:inline;fill:#8b8b8b;fill-opacity:1;stroke-width:0.132136"
         id="rect5434-9-9-7-0-0-8-7-1-0-1-6-9-5"
         width="21.478359"
         height="3.023622"
         x="-261.81104"
         y="609.43634"
         transform="rotate(-90)" /></g><g
       id="g1632"
       transform="translate(-30,-178)"><rect
         style="display:inline;fill:#8b8b8b;fill-opacity:1;stroke-width:0.180101"
         id="rect5434-9-9-7-0-0-8-7-5-6-0"
         width="39.901779"
         height="3.023622"
         x="-537.85016"
         y="258.93237"
         transform="rotate(-90)" /><rect
         style="display:inline;fill:#8b8b8b;fill-opacity:1;stroke-width:0.134188"
         id="rect5434-9-9-7-0-0-8-7-5-6-0-9"
         width="22.150709"
         height="3.023622"
         x="-539.6015"
         y="139.53392"
         transform="rotate(-90)" /><rect
         style="display:inline;fill:#8b8b8b;fill-opacity:1;stroke-width:0.130931"
         id="rect5434-9-9-7-0-0-8-7-5-6-0-9-4"
         width="21.088469"
         height="3.023622"
         x="-539.28949"
         y="378.70883"
         transform="rotate(-90)" /><rect
         style="display:inline;fill:#8b8b8b;fill-opacity:1;stroke-width:0.44283"
         id="rect5434-9-9-7-0-0-8-2-0-0-8-7-3"
         width="3.023622"
         height="241.23683"
         x="-520.49481"
         y="140.3483"
         transform="rotate(-90)" /></g><g
       id="g6558"><rect
         style="display:inline;fill:#8b8b8b;fill-opacity:1;stroke-width:0.180101"
         id="rect5434-9-9-7-0-0-8-7-5-6-0-4"
         width="39.901779"
         height="3.023622"
         x="-360.19714"
         y="609.43634"
         transform="rotate(-90)" /><rect
         style="display:inline;fill:#8b8b8b;fill-opacity:1;stroke-width:0.134188"
         id="rect5434-9-9-7-0-0-8-7-5-6-0-9-8"
         width="22.150709"
         height="3.023622"
         x="-361.94849"
         y="487.84885"
         transform="rotate(-90)" /><rect
         style="display:inline;fill:#8b8b8b;fill-opacity:1;stroke-width:0.130931"
         id="rect5434-9-9-7-0-0-8-7-5-6-0-9-4-5"
         width="21.088469"
         height="3.023622"
         x="-361.36246"
         y="729.68457"
         transform="rotate(-90)" /><rect
         style="display:inline;fill:#8b8b8b;fill-opacity:1;stroke-width:0.444863"
         id="rect5434-9-9-7-0-0-8-2-0-0-8-7-3-8"
         width="3.023622"
         height="243.45663"
         x="-342.8418"
         y="489.21985"
         transform="rotate(-90)" /></g><g
       id="g6622"><path
         style="fill:#33c695;fill-opacity:1;stroke-width:0.166918"
         d="m 777.79491,491.76066 c 2.19278,-2.61962 -0.8504,-4.11108 -0.8504,-4.11108 l -11.59089,-7.39993 c 0,0 -0.66832,-0.49189 -1.67073,-0.53393 -1.00242,-0.0421 -2.25703,0.22597 -2.94582,1.51877 -0.6888,1.2928 0.055,2.2335 0.055,2.2335 0,0 0.39975,0.58334 1.00242,0.98273 0.60278,0.39941 2.23244,1.42944 2.23244,1.42944 l 1.58051,1.02479 0.64574,0.42041 v 1.75527 2.64866 l 0.0187,0.93019 -4.24957,2.738 c 0,0 -1.43833,0.8084 -1.56635,2.15307 -0.12814,1.34468 1.10411,2.39686 2.05902,2.63002 0.9549,0.23315 1.94398,0.0583 2.33613,-0.12386 0.39226,-0.18215 1.8843,-1.15115 1.8843,-1.15115 l 3.3678,-2.18574 2.76244,-1.77045 3.99868,-2.57918 z"
         id="path2400-52" /><rect
         style="fill:#33c695;fill-opacity:1;stroke-width:0.522244"
         id="rect5434-9-27"
         width="190.25316"
         height="5.3324471"
         x="577.71729"
         y="487.33591" /></g><g
       id="g6626"><path
         style="display:inline;fill:#33c695;fill-opacity:1;stroke-width:0.166918"
         d="m 61.69375,488.24363 c -2.19278,2.61962 0.8504,4.11108 0.8504,4.11108 l 11.59089,7.39993 c 0,0 0.66832,0.49189 1.67073,0.53393 1.00242,0.0421 2.25703,-0.22597 2.94582,-1.51877 0.6888,-1.2928 -0.055,-2.2335 -0.055,-2.2335 0,0 -0.39975,-0.58334 -1.00242,-0.98273 -0.60278,-0.39941 -2.23244,-1.42944 -2.23244,-1.42944 l -1.58051,-1.02479 -0.64574,-0.42041 v -1.75527 -2.64866 l -0.0187,-0.93019 4.24957,-2.738 c 0,0 1.43833,-0.8084 1.56635,-2.15307 0.12814,-1.34468 -1.10411,-2.39686 -2.05902,-2.63002 -0.9549,-0.23315 -1.94398,-0.0583 -2.33613,0.12386 -0.39226,0.18215 -1.8843,1.15115 -1.8843,1.15115 l -3.3678,2.18574 -2.76244,1.77045 -3.99868,2.57918 z"
         id="path2400-52-8" /><rect
         style="display:inline;fill:#33c695;fill-opacity:1;stroke-width:0.552638"
         id="rect5434-9-27-5"
         width="213.04218"
         height="5.3324471"
         x="-282.68445"
         y="-492.66837"
         transform="scale(-1)" /></g><g
       id="g6634"
       transform="translate(-3.6595127)"><path
         style="display:inline;fill:#f36c89;fill-opacity:1;stroke-width:0.157463"
         d="m 920.28605,159.75926 c -2.61962,-1.95147 -4.11108,0.75669 -4.11108,0.75669 l -7.39993,10.31492 c 0,0 -0.49189,0.59475 -0.53393,1.48683 -0.0421,0.89208 0.22597,2.00853 1.51877,2.62149 1.2928,0.61296 2.2335,-0.0493 2.2335,-0.0493 0,0 0.58334,-0.35573 0.98273,-0.89207 0.39941,-0.53635 1.42944,-1.98666 1.42944,-1.98666 l 1.02479,-1.40653 0.42041,-0.57464 1.75527,-0.005 h 2.64866 l 0.93019,-0.0164 2.738,3.78175 c 0,0 0.8084,1.28 2.15307,1.39398 1.34468,0.11398 2.39686,-0.98264 2.63002,-1.83243 0.23315,-0.8498 0.0583,-1.72994 -0.12386,-2.07897 -0.18215,-0.34902 -1.15115,-1.67682 -1.15115,-1.67682 l -2.18574,-2.99705 -1.77045,-2.45834 -2.57918,-3.55852 z"
         id="path2400-5" /><rect
         style="display:inline;fill:#f36c89;fill-opacity:1;stroke-width:0.324381"
         id="rect5434-9-2"
         width="73.398407"
         height="5.3324471"
         x="-241.22226"
         y="915.86133"
         transform="rotate(-90)" /></g><g
       id="g6630"
       transform="translate(-3.6595086)"
       style="display:inline"><path
         style="display:inline;fill:#f36c89;fill-opacity:1;stroke-width:0.157463"
         d="m 916.76902,418.56423 c 2.61961,1.95147 4.11108,-0.75669 4.11108,-0.75669 l 7.3999,-10.31492 c 0,0 0.4919,-0.59475 0.5339,-1.48683 0.042,-0.89208 -0.2259,-2.00853 -1.5187,-2.62149 -1.2928,-0.61296 -2.2335,0.0493 -2.2335,0.0493 0,0 -0.5834,0.35573 -0.9828,0.89207 -0.3994,0.53635 -1.4294,1.98666 -1.4294,1.98666 l -1.0248,1.40653 -0.4204,0.57464 -1.75526,0.005 h -2.64862 l -0.9302,0.0164 -2.738,-3.78175 c 0,0 -0.8084,-1.28 -2.1531,-1.39398 -1.3447,-0.11398 -2.3969,0.98264 -2.63,1.83243 -0.2332,0.8498 -0.058,1.72994 0.1238,2.07897 0.1822,0.34902 1.1512,1.67682 1.1512,1.67682 l 2.1857,2.99705 1.7705,2.45834 2.5792,3.55852 z"
         id="path2400-5-0" /><rect
         style="display:inline;fill:#f36c89;fill-opacity:1;stroke-width:0.320531"
         id="rect5434-9-2-0"
         width="71.666397"
         height="5.3324471"
         x="339.10123"
         y="-921.19373"
         transform="rotate(90)" /></g></g><g
     inkscape:label="shapes"
     inkscape:groupmode="layer"
     id="layer1"
     style="display:inline"
     sodipodi:insensitive="true"><rect
       style="display:inline;fill:#ffdae2;fill-opacity:1;stroke-width:0.509318"
       id="rect1110-9-2"
       width="189.89803"
       height="99.223961"
       x="819.91901"
       y="240.2106"
       rx="30.236221"
       ry="30.236221" /><rect
       style="display:inline;fill:#f2f2f2;fill-opacity:1;stroke-width:0.288708"
       id="rect1110-6-3"
       width="99.249893"
       height="61.002991"
       x="180.11957"
       y="360.0509"
       rx="25.310349"
       ry="30.236221" /><rect
       style="display:inline;fill:#f2f2f2;fill-opacity:1;stroke-width:0.287875"
       id="rect1110-6-3-1"
       width="100.6296"
       height="59.819935"
       x="179.42972"
       y="260.12677"
       rx="25.662195"
       ry="29.649837" /><rect
       style="display:inline;fill:#f2f2f2;fill-opacity:1;stroke-width:0.285796"
       id="rect1110-6-3-38"
       width="99.249893"
       height="59.778851"
       x="561.32318"
       y="260.16782"
       rx="25.310349"
       ry="29.629475" /><rect
       style="display:inline;fill:#f2f2f2;fill-opacity:1;stroke-width:0.288708"
       id="rect1110-6-3-8"
       width="99.249893"
       height="61.002991"
       x="370.46381"
       y="159.91803"
       rx="25.310347"
       ry="30.236221" /><rect
       style="display:inline;fill:#f2f2f2;fill-opacity:1;stroke-width:0.290708"
       id="rect1110-6-3-2"
       width="100.6296"
       height="61.002991"
       x="299.90585"
       y="360.05676"
       rx="25.662195"
       ry="30.236221" /><rect
       style="display:inline;fill:#f2f2f2;fill-opacity:1;stroke-width:0.288147"
       id="rect1110-6-3-7"
       width="100.61288"
       height="59.94289"
       x="439.81024"
       y="359.44305"
       rx="25.65793"
       ry="29.710781" /><rect
       style="display:inline;fill:#f2f2f2;fill-opacity:1;stroke-width:0.286165"
       id="rect1110-6-3-0"
       width="99.233177"
       height="59.94289"
       x="561.33154"
       y="360.099"
       rx="25.306084"
       ry="29.710781" /><rect
       style="display:inline;fill:#f2f2f2;fill-opacity:1;stroke-width:0.286622"
       id="rect1110-6-3-3"
       width="99.550003"
       height="59.94289"
       x="680.61322"
       y="360.16467"
       rx="24.830925"
       ry="29.710781" /><rect
       style="display:inline;fill:#f2f2f2;fill-opacity:1;stroke-width:0.28851"
       id="rect1110-6-3-9"
       width="100.61288"
       height="60.094334"
       x="60.739288"
       y="361.20117"
       rx="25.657932"
       ry="29.785845" /><rect
       style="display:inline;fill:#cdf1e5;fill-opacity:1;stroke-width:0.50219"
       id="rect1110-6-0"
       width="300.59863"
       height="60.941376"
       x="279.66772"
       y="459.53146"
       rx="30.236221"
       ry="30.236221" /></g><g
     inkscape:groupmode="layer"
     id="layer8"
     inkscape:label="text 15"
     style="display:inline"
     sodipodi:insensitive="true"><text
       xml:space="preserve"
       style="font-style:normal;font-variant:normal;font-weight:bold;font-stretch:normal;font-size:20px;font-family:'Source Sans Pro';-inkscape-font-specification:'Source Sans Pro, Bold';font-variant-ligatures:normal;font-variant-caps:normal;font-variant-numeric:normal;font-variant-east-asian:normal;fill:#000000;fill-opacity:1"
       x="847.34814"
       y="282.4426"
       id="text3484-6-7-7-9-3-7"
       inkscape:label="text3484-6-7-7"><tspan
         sodipodi:role="line"
         x="847.34814"
         y="282.4426"
         id="tspan16791"
         style="font-style:normal;font-variant:normal;font-weight:bold;font-stretch:normal;font-size:20px;font-family:'Source Sans Pro';-inkscape-font-specification:'Source Sans Pro, Bold';font-variant-ligatures:normal;font-variant-caps:normal;font-variant-numeric:normal;font-variant-east-asian:normal;fill:#8d0121;fill-opacity:1">Vertikale</tspan><tspan
         sodipodi:role="line"
         x="847.34814"
         y="307.4426"
         style="font-style:normal;font-variant:normal;font-weight:bold;font-stretch:normal;font-size:20px;font-family:'Source Sans Pro';-inkscape-font-specification:'Source Sans Pro, Bold';font-variant-ligatures:normal;font-variant-caps:normal;font-variant-numeric:normal;font-variant-east-asian:normal;fill:#8d0121;fill-opacity:1"
         id="tspan1831">Spezialisierung</tspan></text><text
       xml:space="preserve"
       style="font-style:normal;font-variant:normal;font-weight:bold;font-stretch:normal;font-size:20px;font-family:'Source Sans Pro';-inkscape-font-specification:'Source Sans Pro, Bold';font-variant-ligatures:normal;font-variant-caps:normal;font-variant-numeric:normal;font-variant-east-asian:normal;display:inline;fill:#000000;fill-opacity:1"
       x="307.86731"
       y="495.12216"
       id="text3484-6-7-7-9-3-7-4"
       inkscape:label="text3484-6-7-7"><tspan
         sodipodi:role="line"
         x="307.86731"
         y="495.12216"
         id="tspan16791-7"
         style="font-style:normal;font-variant:normal;font-weight:bold;font-stretch:normal;font-size:20px;font-family:'Source Sans Pro';-inkscape-font-specification:'Source Sans Pro, Bold';font-variant-ligatures:normal;font-variant-caps:normal;font-variant-numeric:normal;font-variant-east-asian:normal;fill:#1e5b47;fill-opacity:1">Horizontale Spezialisierung</tspan></text></g><g
     inkscape:groupmode="layer"
     id="layer5"
     inkscape:label="headline 23"
     sodipodi:insensitive="true"><text
       xml:space="preserve"
       style="font-style:normal;font-variant:normal;font-weight:bold;font-stretch:normal;font-size:30.6667px;font-family:'Source Sans Pro';-inkscape-font-specification:'Source Sans Pro, Bold';font-variant-ligatures:normal;font-variant-caps:normal;font-variant-numeric:normal;font-variant-east-asian:normal;fill:#000000"
       x="60.279305"
       y="100.45168"
       id="text790"
       inkscape:label="headline"><tspan
         id="tspan788"
         x="60.279305"
         y="100.45168"
         sodipodi:role="line">Spezialisierung</tspan></text></g></svg>
