<?xml version="1.0" encoding="UTF-8" standalone="no"?>
<!-- Created with Inkscape (http://www.inkscape.org/) -->

<svg
   width="297mm"
   height="210mm"
   viewBox="0 0 1122.5197 793.70081"
   version="1.1"
   id="svg5"
   inkscape:version="1.3 (0e150ed, 2023-07-21)"
   sodipodi:docname="02_Das_Kongruenzprinzip_NEU.svg"
   xml:space="preserve"
   xmlns:inkscape="http://www.inkscape.org/namespaces/inkscape"
   xmlns:sodipodi="http://sodipodi.sourceforge.net/DTD/sodipodi-0.dtd"
   xmlns="http://www.w3.org/2000/svg"
   xmlns:svg="http://www.w3.org/2000/svg"><sodipodi:namedview
     id="namedview7"
     pagecolor="#ffffff"
     bordercolor="#000000"
     borderopacity="0.25"
     inkscape:showpageshadow="2"
     inkscape:pageopacity="0.0"
     inkscape:pagecheckerboard="0"
     inkscape:deskcolor="#d1d1d1"
     inkscape:document-units="mm"
     showgrid="false"
     inkscape:zoom="0.62223194"
     inkscape:cx="411.42215"
     inkscape:cy="370.44064"
     inkscape:window-width="1440"
     inkscape:window-height="794"
     inkscape:window-x="0"
     inkscape:window-y="25"
     inkscape:window-maximized="0"
     inkscape:current-layer="layer1"
     showguides="false"><inkscape:grid
       type="xygrid"
       id="grid950"
       originx="0"
       originy="0"
       spacingy="1"
       spacingx="1"
       units="mm"
       visible="false" /></sodipodi:namedview><defs
     id="defs2" /><g
     inkscape:label="shapes"
     inkscape:groupmode="layer"
     id="layer1"
     style="display:inline"
     sodipodi:insensitive="true"><path
       style="display:inline;fill:#cdf1e5;fill-opacity:1;stroke:#050505;stroke-width:0;stroke-dasharray:none"
       d="M 485.05106,149.07281 640.5982,373.77535 c 0,0 6.07041,10.36847 -4.82837,21.81282 0,0 -6.53924,5.38557 -20.70755,5.38557 -14.16831,0 -305.43662,0 -305.43662,0 0,0 -15.80317,0.2244 -20.70755,-13.91273 0,0 -5.17702,-5.60998 6.8117,-22.6643 11.98854,-17.05432 56.12841,-79.88603 56.12841,-79.88603 l 93.72896,-135.53697 c 0,0 7.08416,-10.09796 22.61486,-8.52717 0,0 9.44833,-0.25059 16.84902,8.62627 z"
       id="path3906-44-7-6" /><path
       style="display:inline;fill:#cdf1e5;fill-opacity:1;stroke:#050505;stroke-width:0;stroke-dasharray:none"
       d="m 713.03119,476.92144 155.54714,224.70254 c 0,0 6.07041,10.36847 -4.82837,21.81282 0,0 -6.53924,5.38557 -20.70755,5.38557 -14.16831,0 -305.43662,0 -305.43662,0 0,0 -15.80317,0.2244 -20.70755,-13.91273 0,0 -5.17702,-5.60998 6.8117,-22.6643 11.98854,-17.05432 56.12841,-79.88603 56.12841,-79.88603 l 93.72896,-135.53697 c 0,0 7.08416,-10.09796 22.61486,-8.52717 0,0 9.44833,-0.25059 16.84902,8.62627 z"
       id="path3906-44-7-6-5" /><path
       style="display:inline;fill:#cdf1e5;fill-opacity:1;stroke:#050505;stroke-width:0;stroke-dasharray:none"
       d="m 258.92149,477.65263 155.54715,224.70254 c 0,0 6.0704,10.36847 -4.8284,21.81282 0,0 -6.5392,5.38557 -20.7075,5.38557 -14.1683,0 -305.43665,0 -305.43665,0 0,0 -15.80317,0.2244 -20.70755,-13.91273 0,0 -5.17702,-5.60998 6.8117,-22.6643 11.98854,-17.05432 56.12841,-79.88603 56.12841,-79.88603 l 93.72896,-135.53697 c 0,0 7.08416,-10.09796 22.61486,-8.52717 0,0 9.44833,-0.25059 16.84902,8.62627 z"
       id="path3906-44-7-6-61" /><path
       style="display:inline;fill:#8b8b8b;fill-opacity:1;stroke:#050505;stroke-width:0;stroke-dasharray:none"
       d="M 442.50205,709.63462 267.22924,451.97423 c 0,0 -6.84022,-11.88925 5.4407,-25.01218 0,0 7.36847,-6.17549 23.33362,-6.17549 15.96506,0 344.1704,0 344.1704,0 0,0 17.80728,-0.25731 23.33352,15.95336 0,0 5.83363,6.43281 -7.67553,25.98854 -13.50881,19.55574 -63.24627,91.60318 -63.24627,91.60318 L 486.97052,709.74825 c 0,0 -7.98254,11.57906 -25.48275,9.77788 0,0 -10.64652,0.28735 -18.98572,-9.89151 z"
       id="path3906-44-7-6-7" /></g><g
     inkscape:groupmode="layer"
     id="layer4"
     inkscape:label="elements"
     style="display:inline"
     sodipodi:insensitive="true"><g
       id="g7933"
       transform="translate(-83.715376,24)"><path
         style="fill:#ffffff;fill-opacity:1;stroke-width:0.116307"
         d="m 547.03311,533.16471 c 1.97457,1.4124 3.09878,-0.5477 3.09878,-0.5477 l 5.57781,-7.4659 c 0,0 0.37077,-0.4305 0.40246,-1.0762 0.0317,-0.6457 -0.17034,-1.4538 -1.1448,-1.8974 -0.97447,-0.4437 -1.68353,0.036 -1.68353,0.036 0,0 -0.4397,0.2575 -0.74075,0.6457 -0.30106,0.3882 -1.07746,1.438 -1.07746,1.438 l -0.77245,1.018 -0.31689,0.4159 h -1.32306 -1.99647 l -0.70113,0.012 -2.06381,-2.7372 c 0,0 -0.60935,-0.9264 -1.62291,-1.0089 -1.01357,-0.082 -1.80667,0.7112 -1.98242,1.3263 -0.17573,0.6151 -0.0439,1.2521 0.0934,1.5047 0.13729,0.2527 0.86769,1.2137 0.86769,1.2137 l 1.64754,2.1693 1.33449,1.7793 1.9441,2.5756 z"
         id="path2400-03-9-7-7-4-2" /><rect
         style="fill:#ffffff;fill-opacity:1;stroke-width:0.142373"
         id="rect5434-9-8-0-4-3-9"
         width="18.758278"
         height="4.0194082"
         x="-527.7265"
         y="546.4057"
         transform="rotate(-90)" /></g><g
       id="g9820"
       transform="translate(-83.649962,21.199695)"><path
         style="fill:#8b8b8b;fill-opacity:1;stroke-width:0.154301"
         d="m 775.14141,432.61025 c 3.22002,-0.0715 2.85403,-3.04691 2.85403,-3.04691 l -0.0182,-12.3638 c 0,0 0.0512,-0.75199 -0.42891,-1.46268 -0.48,-0.71073 -1.33745,-1.40789 -2.72497,-1.10364 -1.38751,0.30427 -1.75912,1.37702 -1.75912,1.37702 0,0 -0.26195,0.62318 -0.27264,1.2749 -0.0108,0.65163 9e-5,2.38375 9e-5,2.38375 l -0.0101,1.69534 -0.006,0.69369 -1.39861,1.06062 -2.11955,1.58837 -0.73477,0.57064 -4.36874,-1.26401 c 0,0 -1.384,-0.49877 -2.52565,0.22006 -1.14172,0.71877 -1.35225,2.19241 -1.04941,2.98529 0.30277,0.79281 0.94949,1.36423 1.29628,1.52322 0.34672,0.15892 1.88675,0.59812 1.88675,0.59812 l 3.47494,0.99222 2.83241,0.82731 4.11314,1.18776 z"
         id="path2400-0-5-4-6" /><path
         style="display:inline;fill:#8b8b8b;fill-opacity:1;stroke-width:0.154301"
         d="m 736.85334,375.65359 c -3.22002,0.0715 -2.85403,3.04691 -2.85403,3.04691 l 0.0182,12.3638 c 0,0 -0.0512,0.75199 0.42891,1.46268 0.48,0.71073 1.33745,1.40789 2.72497,1.10364 1.38751,-0.30427 1.75912,-1.37702 1.75912,-1.37702 0,0 0.26195,-0.62318 0.27264,-1.2749 0.0108,-0.65163 -9e-5,-2.38375 -9e-5,-2.38375 l 0.0101,-1.69534 0.006,-0.69369 1.39861,-1.06062 2.11955,-1.58837 0.73477,-0.57064 4.36874,1.26401 c 0,0 1.384,0.49877 2.52565,-0.22006 1.14172,-0.71877 1.35225,-2.19241 1.04941,-2.98529 -0.30277,-0.79281 -0.94949,-1.36423 -1.29628,-1.52322 -0.34672,-0.15892 -1.88675,-0.59812 -1.88675,-0.59812 l -3.47494,-0.99222 -2.83241,-0.82731 -4.11314,-1.18776 z"
         id="path2400-0-5-4-6-8" /><rect
         style="fill:#8b8b8b;fill-opacity:1;stroke-width:0.296339"
         id="rect5434-9-9-7-00-2"
         width="61.255592"
         height="5.3324471"
         x="744.13214"
         y="-365.28525"
         transform="rotate(53.152249)" /></g><g
       id="g9815"
       transform="translate(-80.697575,24.868283)"><path
         style="display:inline;fill:#8b8b8b;fill-opacity:1;stroke-width:0.154301"
         d="m 316.38431,430.06012 c 1.06554,3.03946 3.78118,1.76969 3.78118,1.76969 l 11.74989,-3.84758 c 0,0 0.73086,-0.18429 1.25785,-0.86095 0.52706,-0.67656 0.92428,-1.7078 0.20515,-2.93281 -0.71914,-1.22498 -1.85424,-1.24598 -1.85424,-1.24598 0,0 -0.67367,-0.056 -1.29664,0.13572 -0.62293,0.1916 -2.26646,0.73857 -2.26646,0.73857 l -1.61505,0.51561 -0.66143,0.20919 -1.44173,-1.00122 -2.16685,-1.5232 -0.77019,-0.52184 -0.15163,-4.54539 c 0,0 0.0455,-1.47043 -0.99167,-2.33323 -1.03711,-0.86287 -2.50348,-0.60651 -3.16353,-0.0729 -0.66,0.53349 -1.00296,1.32542 -1.0467,1.7044 -0.0437,0.3789 0.0158,1.97922 0.0158,1.97922 l 0.13315,3.61137 0.0909,2.94936 0.14494,4.27874 z"
         id="path2400-0-5-4-6-84" /><path
         style="display:inline;fill:#8b8b8b;fill-opacity:1;stroke-width:0.154301"
         d="m 358.67728,376.01068 c -1.06554,-3.03946 -3.78118,-1.76969 -3.78118,-1.76969 l -11.74989,3.84758 c 0,0 -0.73086,0.18429 -1.25785,0.86095 -0.52706,0.67656 -0.92428,1.7078 -0.20515,2.93281 0.71914,1.22498 1.85424,1.24598 1.85424,1.24598 0,0 0.67367,0.056 1.29664,-0.13572 0.62293,-0.1916 2.26646,-0.73857 2.26646,-0.73857 l 1.61505,-0.51561 0.66143,-0.20919 1.44173,1.00122 2.16685,1.5232 0.77019,0.52184 0.15163,4.54539 c 0,0 -0.0455,1.47043 0.99167,2.33323 1.03711,0.86287 2.50348,0.60651 3.16353,0.0729 0.66,-0.53349 1.00296,-1.32542 1.0467,-1.7044 0.0437,-0.3789 -0.0158,-1.97922 -0.0158,-1.97922 l -0.13315,-3.61137 -0.0909,-2.94936 -0.14494,-4.27874 z"
         id="path2400-0-5-4-6-8-6" /><rect
         style="display:inline;fill:#8b8b8b;fill-opacity:1;stroke-width:0.296339"
         id="rect5434-9-9-7-00-2-6"
         width="61.255592"
         height="5.3324471"
         x="102.98347"
         y="-510.57669"
         transform="rotate(125.1052)" /></g><g
       id="g9959"
       transform="translate(-83.431718,21.158589)"><path
         style="display:inline;fill:#8b8b8b;fill-opacity:1;stroke-width:0.154301"
         d="m 582.21338,710.41746 c 1.84666,-2.63884 -0.76909,-4.10337 -0.76909,-4.10337 l -9.98067,-7.29727 c 0,0 -0.57611,-0.48601 -1.43313,-0.51916 -0.85699,-0.0333 -1.92626,0.24586 -2.5015,1.54466 -0.57522,1.29881 0.0701,2.23289 0.0701,2.23289 0,0 0.3476,0.57978 0.86681,0.97382 0.51907,0.39409 1.92226,1.40968 1.92226,1.40968 l 1.36111,1.01077 0.55583,0.41508 0.0281,1.75506 0.0273,2.64853 0.0256,0.92997 -3.60294,2.77533 c 0,0 -1.2207,0.82105 -1.31622,2.16677 -0.0956,1.34574 0.96819,2.38702 1.78665,2.61172 0.81837,0.22472 1.66162,0.0412 1.99491,-0.14446 0.3332,-0.1856 1.59814,-1.16771 1.59814,-1.16771 l 2.85518,-2.21531 2.34221,-1.79473 3.3903,-2.61431 z"
         id="path2400-0-5-4-6-2" /><path
         style="display:inline;fill:#8b8b8b;fill-opacity:1;stroke-width:0.154301"
         d="m 513.64119,707.608 c -1.84666,2.63884 0.76909,4.10337 0.76909,4.10337 l 9.98067,7.29727 c 0,0 0.57611,0.48601 1.43313,0.51916 0.85699,0.0333 1.92626,-0.24586 2.5015,-1.54466 0.57522,-1.29881 -0.0701,-2.23289 -0.0701,-2.23289 0,0 -0.3476,-0.57978 -0.86681,-0.97382 -0.51907,-0.39409 -1.92226,-1.40968 -1.92226,-1.40968 l -1.36111,-1.01077 -0.55583,-0.41508 -0.0281,-1.75506 -0.0273,-2.64853 -0.0256,-0.92997 3.60294,-2.77533 c 0,0 1.2207,-0.82105 1.31622,-2.16677 0.0956,-1.34574 -0.96819,-2.38702 -1.78665,-2.61172 -0.81837,-0.22472 -1.66162,-0.0412 -1.99491,0.14446 -0.3332,0.1856 -1.59814,1.16771 -1.59814,1.16771 l -2.85518,2.21531 -2.34221,1.79473 -3.3903,2.61431 z"
         id="path2400-0-5-4-6-8-5" /><rect
         style="display:inline;fill:#8b8b8b;fill-opacity:1;stroke-width:0.296339"
         id="rect5434-9-9-7-00-2-1"
         width="61.255592"
         height="5.3324471"
         x="507.94867"
         y="711.96387"
         transform="rotate(-0.59136113)" /></g></g><g
     inkscape:groupmode="layer"
     id="layer11"
     inkscape:label="text 15"
     sodipodi:insensitive="true"><text
       xml:space="preserve"
       style="font-style:normal;font-variant:normal;font-weight:normal;font-stretch:normal;font-size:17.3333px;font-family:'Source Sans Pro';-inkscape-font-specification:'Source Sans Pro, Normal';font-variant-ligatures:normal;font-variant-caps:normal;font-variant-numeric:normal;font-variant-east-asian:normal;text-align:center;text-anchor:middle;fill:#ffffff;fill-opacity:1"
       x="465.12305"
       y="472.78738"
       id="text3484-6-7-7-76-2-9"
       inkscape:label="text3484-6-7-7"><tspan
         sodipodi:role="line"
         x="465.12305"
         y="472.78738"
         id="tspan2616-4-4" /><tspan
         sodipodi:role="line"
         x="465.12305"
         y="494.45401"
         style="font-style:normal;font-variant:normal;font-weight:normal;font-stretch:normal;font-size:17.3333px;font-family:'Source Sans Pro';-inkscape-font-specification:'Source Sans Pro, Normal';font-variant-ligatures:normal;font-variant-caps:normal;font-variant-numeric:normal;font-variant-east-asian:normal;text-align:center;text-anchor:middle;fill:#ffffff"
         id="tspan3586">Aufgaben, Kompetenzen &amp; Verantwortung</tspan><tspan
         sodipodi:role="line"
         x="465.12305"
         y="516.12061"
         style="font-style:normal;font-variant:normal;font-weight:normal;font-stretch:normal;font-size:17.3333px;font-family:'Source Sans Pro';-inkscape-font-specification:'Source Sans Pro, Normal';font-variant-ligatures:normal;font-variant-caps:normal;font-variant-numeric:normal;font-variant-east-asian:normal;text-align:center;text-anchor:middle;fill:#ffffff"
         id="tspan3653">sollten möglichst übereinstimmen</tspan><tspan
         sodipodi:role="line"
         x="465.12305"
         y="537.78723"
         style="font-style:normal;font-variant:normal;font-weight:normal;font-stretch:normal;font-size:17.3333px;font-family:'Source Sans Pro';-inkscape-font-specification:'Source Sans Pro, Normal';font-variant-ligatures:normal;font-variant-caps:normal;font-variant-numeric:normal;font-variant-east-asian:normal;text-align:center;text-anchor:middle;fill:#ffffff"
         id="tspan6131" /><tspan
         sodipodi:role="line"
         x="465.12305"
         y="559.45386"
         style="font-style:normal;font-variant:normal;font-weight:normal;font-stretch:normal;font-size:17.3333px;font-family:'Source Sans Pro';-inkscape-font-specification:'Source Sans Pro, Normal';font-variant-ligatures:normal;font-variant-caps:normal;font-variant-numeric:normal;font-variant-east-asian:normal;text-align:center;text-anchor:middle;fill:#ffffff"
         id="tspan3709" /><tspan
         sodipodi:role="line"
         x="465.12305"
         y="581.12048"
         style="font-style:normal;font-variant:normal;font-weight:normal;font-stretch:normal;font-size:17.3333px;font-family:'Source Sans Pro';-inkscape-font-specification:'Source Sans Pro, Normal';font-variant-ligatures:normal;font-variant-caps:normal;font-variant-numeric:normal;font-variant-east-asian:normal;text-align:center;text-anchor:middle;fill:#ffffff"
         id="tspan6304">Gütekriterium der</tspan><tspan
         sodipodi:role="line"
         x="465.12305"
         y="602.78711"
         style="font-style:normal;font-variant:normal;font-weight:normal;font-stretch:normal;font-size:17.3333px;font-family:'Source Sans Pro';-inkscape-font-specification:'Source Sans Pro, Normal';font-variant-ligatures:normal;font-variant-caps:normal;font-variant-numeric:normal;font-variant-east-asian:normal;text-align:center;text-anchor:middle;fill:#ffffff"
         id="tspan6217">Organisation</tspan></text><text
       xml:space="preserve"
       style="font-style:normal;font-variant:normal;font-weight:normal;font-stretch:normal;font-size:17.3333px;font-family:'Source Sans Pro';-inkscape-font-specification:'Source Sans Pro, Normal';font-variant-ligatures:normal;font-variant-caps:normal;font-variant-numeric:normal;font-variant-east-asian:normal;text-align:center;text-anchor:middle;fill:#000000;fill-opacity:1"
       x="238.86349"
       y="581.26984"
       id="text3484-6-7-7-76-2-9-1"
       inkscape:label="text3484-6-7-7"><tspan
         sodipodi:role="line"
         x="238.86349"
         y="581.26984"
         style="font-style:normal;font-variant:normal;font-weight:normal;font-stretch:normal;font-size:17.3333px;font-family:'Source Sans Pro';-inkscape-font-specification:'Source Sans Pro, Normal';font-variant-ligatures:normal;font-variant-caps:normal;font-variant-numeric:normal;font-variant-east-asian:normal;text-align:center;text-anchor:middle;fill:#000000"
         id="tspan4821">Welche</tspan><tspan
         sodipodi:role="line"
         x="238.86349"
         y="602.93646"
         style="font-style:normal;font-variant:normal;font-weight:bold;font-stretch:normal;font-size:17.3333px;font-family:'Source Sans Pro';-inkscape-font-specification:'Source Sans Pro, Bold';font-variant-ligatures:normal;font-variant-caps:normal;font-variant-numeric:normal;font-variant-east-asian:normal;text-align:center;text-anchor:middle;fill:#000000"
         id="tspan7385">Kompetenzen</tspan><tspan
         sodipodi:role="line"
         x="238.86349"
         y="624.60309"
         style="font-style:normal;font-variant:normal;font-weight:normal;font-stretch:normal;font-size:17.3333px;font-family:'Source Sans Pro';-inkscape-font-specification:'Source Sans Pro, Normal';font-variant-ligatures:normal;font-variant-caps:normal;font-variant-numeric:normal;font-variant-east-asian:normal;text-align:center;text-anchor:middle;fill:#000000"
         id="tspan7389">benötigt die Orga-</tspan><tspan
         sodipodi:role="line"
         x="238.86349"
         y="646.26971"
         style="font-style:normal;font-variant:normal;font-weight:normal;font-stretch:normal;font-size:17.3333px;font-family:'Source Sans Pro';-inkscape-font-specification:'Source Sans Pro, Normal';font-variant-ligatures:normal;font-variant-caps:normal;font-variant-numeric:normal;font-variant-east-asian:normal;text-align:center;text-anchor:middle;fill:#000000"
         id="tspan4849">nisationseinheit bzw. sind</tspan><tspan
         sodipodi:role="line"
         x="238.86349"
         y="667.93634"
         style="font-style:normal;font-variant:normal;font-weight:normal;font-stretch:normal;font-size:17.3333px;font-family:'Source Sans Pro';-inkscape-font-specification:'Source Sans Pro, Normal';font-variant-ligatures:normal;font-variant-caps:normal;font-variant-numeric:normal;font-variant-east-asian:normal;text-align:center;text-anchor:middle;fill:#000000"
         id="tspan7109">hilfreich, um die gewünschten</tspan><tspan
         sodipodi:role="line"
         x="238.86349"
         y="689.60297"
         style="font-style:normal;font-variant:normal;font-weight:normal;font-stretch:normal;font-size:17.3333px;font-family:'Source Sans Pro';-inkscape-font-specification:'Source Sans Pro, Normal';font-variant-ligatures:normal;font-variant-caps:normal;font-variant-numeric:normal;font-variant-east-asian:normal;text-align:center;text-anchor:middle;fill:#000000"
         id="tspan7401">Ergebnisse zu erzielen?</tspan></text><text
       xml:space="preserve"
       style="font-style:normal;font-variant:normal;font-weight:normal;font-stretch:normal;font-size:17.3333px;font-family:'Source Sans Pro';-inkscape-font-specification:'Source Sans Pro, Normal';font-variant-ligatures:normal;font-variant-caps:normal;font-variant-numeric:normal;font-variant-east-asian:normal;text-align:center;text-anchor:middle;fill:#000000;fill-opacity:1"
       x="693.34589"
       y="593.20929"
       id="text3484-6-7-7-76-2-9-1-3"
       inkscape:label="text3484-6-7-7"><tspan
         sodipodi:role="line"
         x="693.34589"
         y="593.20929"
         style="font-style:normal;font-variant:normal;font-weight:normal;font-stretch:normal;font-size:17.3333px;font-family:'Source Sans Pro';-inkscape-font-specification:'Source Sans Pro, Normal';font-variant-ligatures:normal;font-variant-caps:normal;font-variant-numeric:normal;font-variant-east-asian:normal;text-align:center;text-anchor:middle;fill:#000000"
         id="tspan5014">Welche</tspan><tspan
         sodipodi:role="line"
         x="693.34589"
         y="614.87592"
         style="font-style:normal;font-variant:normal;font-weight:bold;font-stretch:normal;font-size:17.3333px;font-family:'Source Sans Pro';-inkscape-font-specification:'Source Sans Pro, Bold';font-variant-ligatures:normal;font-variant-caps:normal;font-variant-numeric:normal;font-variant-east-asian:normal;text-align:center;text-anchor:middle;fill:#000000"
         id="tspan7377">Verantwortung</tspan><tspan
         sodipodi:role="line"
         x="693.34589"
         y="636.54254"
         style="font-style:normal;font-variant:normal;font-weight:normal;font-stretch:normal;font-size:17.3333px;font-family:'Source Sans Pro';-inkscape-font-specification:'Source Sans Pro, Normal';font-variant-ligatures:normal;font-variant-caps:normal;font-variant-numeric:normal;font-variant-east-asian:normal;text-align:center;text-anchor:middle;fill:#000000"
         id="tspan3021">ist mit der Übernahme der</tspan><tspan
         sodipodi:role="line"
         x="693.34589"
         y="658.20917"
         style="font-style:normal;font-variant:normal;font-weight:normal;font-stretch:normal;font-size:17.3333px;font-family:'Source Sans Pro';-inkscape-font-specification:'Source Sans Pro, Normal';font-variant-ligatures:normal;font-variant-caps:normal;font-variant-numeric:normal;font-variant-east-asian:normal;text-align:center;text-anchor:middle;fill:#000000"
         id="tspan5026">Aufgaben für die Organisations-</tspan><tspan
         sodipodi:role="line"
         x="693.34589"
         y="679.87579"
         style="font-style:normal;font-variant:normal;font-weight:normal;font-stretch:normal;font-size:17.3333px;font-family:'Source Sans Pro';-inkscape-font-specification:'Source Sans Pro, Normal';font-variant-ligatures:normal;font-variant-caps:normal;font-variant-numeric:normal;font-variant-east-asian:normal;text-align:center;text-anchor:middle;fill:#000000"
         id="tspan5448">einheit verbunden?</tspan></text><text
       xml:space="preserve"
       style="font-style:normal;font-variant:normal;font-weight:normal;font-stretch:normal;font-size:17.3333px;font-family:'Source Sans Pro';-inkscape-font-specification:'Source Sans Pro, Normal';font-variant-ligatures:normal;font-variant-caps:normal;font-variant-numeric:normal;font-variant-east-asian:normal;text-align:center;text-anchor:middle;fill:#000000;fill-opacity:1"
       x="465.16638"
       y="265.36069"
       id="text3484-6-7-7-76-2-9-1-3-4"
       inkscape:label="text3484-6-7-7"><tspan
         sodipodi:role="line"
         x="465.16638"
         y="265.36069"
         style="font-style:normal;font-variant:normal;font-weight:normal;font-stretch:normal;font-size:17.3333px;font-family:'Source Sans Pro';-inkscape-font-specification:'Source Sans Pro, Normal';font-variant-ligatures:normal;font-variant-caps:normal;font-variant-numeric:normal;font-variant-east-asian:normal;text-align:center;text-anchor:middle;fill:#000000"
         id="tspan4751">Welche</tspan><tspan
         sodipodi:role="line"
         x="465.16638"
         y="287.02731"
         style="font-style:normal;font-variant:normal;font-weight:bold;font-stretch:normal;font-size:17.3333px;font-family:'Source Sans Pro';-inkscape-font-specification:'Source Sans Pro, Bold';font-variant-ligatures:normal;font-variant-caps:normal;font-variant-numeric:normal;font-variant-east-asian:normal;text-align:center;text-anchor:middle;fill:#000000"
         id="tspan7403">Aufgaben</tspan><tspan
         sodipodi:role="line"
         x="465.16638"
         y="308.69394"
         style="font-style:normal;font-variant:normal;font-weight:normal;font-stretch:normal;font-size:17.3333px;font-family:'Source Sans Pro';-inkscape-font-specification:'Source Sans Pro, Normal';font-variant-ligatures:normal;font-variant-caps:normal;font-variant-numeric:normal;font-variant-east-asian:normal;text-align:center;text-anchor:middle;fill:#000000"
         id="tspan5106">sollen übernommen</tspan><tspan
         sodipodi:role="line"
         x="465.16638"
         y="330.36057"
         style="font-style:normal;font-variant:normal;font-weight:normal;font-stretch:normal;font-size:17.3333px;font-family:'Source Sans Pro';-inkscape-font-specification:'Source Sans Pro, Normal';font-variant-ligatures:normal;font-variant-caps:normal;font-variant-numeric:normal;font-variant-east-asian:normal;text-align:center;text-anchor:middle;fill:#000000"
         id="tspan6566">werden? Welche Ergebnisse</tspan><tspan
         sodipodi:role="line"
         x="465.16638"
         y="352.02719"
         style="font-style:normal;font-variant:normal;font-weight:normal;font-stretch:normal;font-size:17.3333px;font-family:'Source Sans Pro';-inkscape-font-specification:'Source Sans Pro, Normal';font-variant-ligatures:normal;font-variant-caps:normal;font-variant-numeric:normal;font-variant-east-asian:normal;text-align:center;text-anchor:middle;fill:#000000"
         id="tspan7415">sind dabei zu erzielen?</tspan></text></g><g
     inkscape:groupmode="layer"
     id="layer8"
     inkscape:label="text 15"
     sodipodi:insensitive="true"><text
       xml:space="preserve"
       style="font-style:normal;font-variant:normal;font-weight:bold;font-stretch:normal;font-size:20px;font-family:'Source Sans Pro';-inkscape-font-specification:'Source Sans Pro, Bold';font-variant-ligatures:normal;font-variant-caps:normal;font-variant-numeric:normal;font-variant-east-asian:normal;text-align:center;text-anchor:middle;display:inline;fill:#ffffff;fill-opacity:1"
       x="464.6651"
       y="458.73352"
       id="text3484-8-7-4-1-9"><tspan
         sodipodi:role="line"
         x="464.6651"
         y="458.73352"
         style="font-style:normal;font-variant:normal;font-weight:bold;font-stretch:normal;font-size:20px;font-family:'Source Sans Pro';-inkscape-font-specification:'Source Sans Pro, Bold';font-variant-ligatures:normal;font-variant-caps:normal;font-variant-numeric:normal;font-variant-east-asian:normal;text-align:center;text-anchor:middle;fill:#ffffff"
         id="tspan1036-7">Kongruenzprinzip</tspan></text></g><g
     inkscape:groupmode="layer"
     id="layer5"
     inkscape:label="headline 23"
     sodipodi:insensitive="true"><text
       xml:space="preserve"
       style="font-style:normal;font-variant:normal;font-weight:bold;font-stretch:normal;font-size:30.6667px;font-family:'Source Sans Pro';-inkscape-font-specification:'Source Sans Pro, Bold';font-variant-ligatures:normal;font-variant-caps:normal;font-variant-numeric:normal;font-variant-east-asian:normal;fill:#000000"
       x="56.960369"
       y="79.829987"
       id="text790"
       inkscape:label="headline"><tspan
         id="tspan788"
         x="56.960369"
         y="79.829987"
         sodipodi:role="line">Das Kongruenzprinzip</tspan></text></g></svg>
